<?xml version="1.0" standalone="no"?>
<!DOCTYPE svg PUBLIC "-//W3C//DTD SVG 20010904//EN"
 "http://www.w3.org/TR/2001/REC-SVG-20010904/DTD/svg10.dtd">
<svg version="1.0" xmlns="http://www.w3.org/2000/svg"
 width="700.000000pt" height="700.000000pt" viewBox="0 0 700.000000 700.000000"
 preserveAspectRatio="xMidYMid meet">
<metadata>
Created by potrace 1.14, written by Peter Selinger 2001-2017
</metadata>
<g transform="translate(0.000000,700.000000) scale(0.100000,-0.100000)"
fill="#000000" stroke="none">
<path d="M3360 5561 c0 -3 -21 -5 -47 -5 -52 1 -210 -24 -313 -51 -85 -21
-264 -86 -268 -97 -2 -4 -8 -8 -14 -8 -16 0 -80 -31 -125 -62 -23 -15 -44 -28
-48 -28 -9 0 -114 -78 -160 -120 -75 -67 -154 -151 -200 -213 -25 -34 -52 -70
-60 -79 -13 -16 -125 -206 -125 -213 0 -2 -15 -36 -34 -77 -34 -74 -65 -151
-72 -178 -2 -8 -15 -48 -28 -87 -30 -86 -44 -158 -26 -130 36 57 229 252 305
309 72 53 165 110 220 133 37 16 177 66 183 65 1 0 3 0 5 1 31 9 111 13 227
13 125 0 159 -4 243 -27 233 -64 321 -127 705 -506 193 -191 234 -228 302
-281 24 -19 50 -40 56 -45 6 -6 37 -28 70 -50 32 -22 61 -42 64 -45 18 -18
199 -110 275 -140 39 -15 79 -31 90 -35 11 -4 25 -9 30 -10 6 -2 42 -12 80
-23 39 -11 88 -23 110 -28 22 -4 45 -8 50 -9 163 -37 495 -46 705 -20 71 9
168 25 182 30 7 2 25 7 41 10 65 12 82 17 179 52 214 75 391 186 548 343 114
114 214 247 276 368 21 43 42 79 47 80 4 2 7 11 7 21 0 9 6 25 13 36 18 29
103 252 112 296 2 8 10 40 19 70 l16 54 -21 -25 c-135 -163 -224 -248 -374
-358 -8 -6 -82 -46 -135 -73 -63 -33 -191 -70 -289 -85 -37 -6 -200 -5 -241 1
-34 4 -110 17 -120 20 -3 1 -18 5 -35 9 -67 17 -176 64 -187 80 -4 6 -8 8 -8
3 0 -8 -61 30 -128 80 -72 53 -167 142 -367 340 -164 163 -296 281 -400 358
-103 77 -353 210 -403 215 -4 1 -17 8 -29 16 -13 8 -23 12 -23 9 0 -3 -16 2
-36 10 -20 8 -46 17 -58 19 -11 2 -52 11 -89 21 -37 9 -78 18 -90 20 -12 1
-42 6 -67 9 -25 4 -63 9 -85 12 -57 9 -455 13 -455 5z"/>
<path d="M1668 3495 c-2 -1 -37 -5 -78 -9 -94 -8 -127 -12 -165 -20 -16 -3
-41 -8 -55 -11 -230 -42 -490 -157 -658 -292 -108 -86 -294 -287 -311 -336 -2
-6 -12 -20 -23 -31 -10 -11 -18 -25 -18 -32 0 -7 -4 -14 -9 -16 -14 -5 -108
-196 -159 -323 -27 -67 -95 -286 -90 -290 2 -2 24 22 50 53 77 96 237 252 257
252 6 0 11 4 11 8 0 9 126 92 141 92 5 0 9 5 9 10 0 6 8 10 18 10 10 0 23 5
30 12 14 14 60 31 172 65 72 21 106 25 225 26 77 1 163 -2 190 -6 131 -21 290
-86 397 -163 95 -67 155 -122 388 -354 102 -102 226 -219 276 -260 49 -41 91
-78 92 -82 2 -5 9 -8 15 -8 7 0 26 -12 42 -26 27 -23 147 -96 251 -152 23 -12
49 -22 58 -22 9 0 16 -4 16 -9 0 -5 10 -11 23 -14 12 -3 54 -17 92 -30 70 -26
167 -53 253 -71 17 -3 98 -16 137 -22 35 -5 258 -17 300 -17 167 2 334 17 435
39 14 3 36 7 50 10 199 39 466 158 605 269 11 9 35 28 54 43 77 61 214 209
257 277 10 17 21 32 24 35 26 24 136 225 176 324 14 34 29 70 34 81 23 50 93
286 86 292 -2 2 -11 -8 -20 -22 -30 -45 -49 -66 -146 -165 -115 -116 -206
-185 -323 -245 -71 -36 -184 -79 -207 -78 -3 0 -14 -3 -25 -7 -52 -20 -194
-28 -310 -17 -189 17 -328 69 -486 183 -88 64 -130 102 -396 365 -194 191
-344 320 -453 389 -30 19 -57 37 -60 40 -3 3 -23 14 -45 25 -22 10 -48 26 -59
35 -10 8 -20 14 -22 13 -2 -2 -25 7 -51 19 -27 11 -59 25 -73 31 -14 5 -34 13
-45 18 -59 24 -175 56 -310 84 -22 4 -97 15 -160 22 -44 5 -403 12 -407 8z"/>
</g>
</svg>
